<?xml version="1.0" encoding="UTF-8" standalone="no"?>
<svg
   version="1.1"
   width="135"
   height="153"
   shape-rendering="crispEdges"
   id="svg29096"
   sodipodi:docname="cashu.svg"
   inkscape:version="1.1.2 (0a00cf5, 2022-02-04)"
   xmlns:inkscape="http://www.inkscape.org/namespaces/inkscape"
   xmlns:sodipodi="http://sodipodi.sourceforge.net/DTD/sodipodi-0.dtd"
   xmlns="http://www.w3.org/2000/svg"
   xmlns:svg="http://www.w3.org/2000/svg">
  <defs
     id="defs29100" />
  <sodipodi:namedview
     id="namedview29098"
     pagecolor="#505050"
     bordercolor="#eeeeee"
     borderopacity="1"
     inkscape:pageshadow="0"
     inkscape:pageopacity="0"
     inkscape:pagecheckerboard="0"
     showgrid="false"
     inkscape:zoom="1.9146341"
     inkscape:cx="-5.4840764"
     inkscape:cy="91.923567"
     inkscape:window-width="1440"
     inkscape:window-height="838"
     inkscape:window-x="0"
     inkscape:window-y="0"
     inkscape:window-maximized="1"
     inkscape:current-layer="svg29096"
     fit-margin-top="0"
     fit-margin-left="0"
     fit-margin-right="0"
     fit-margin-bottom="0" />
  <path
     id="rect2"
     d="m 18,0 v 1 1 1 1 1 1 1 1 1 h 1 1 1 1 1 1 1 1 1 1 1 1 1 1 1 1 1 1 V 8 7 6 5 4 3 2 1 0 h -1 -1 -1 -1 -1 -1 -1 -1 -1 -1 -1 -1 -1 -1 -1 -1 -1 z m 0,9 H 17 16 15 14 13 12 11 10 9 v 1 1 1 1 1 1 1 1 1 h 1 1 1 1 1 1 1 1 1 V 17 16 15 14 13 12 11 10 Z M 9,18 H 8 7 6 5 4 3 2 1 0 v 1 1 1 1 1 1 1 1 1 1 1 1 1 1 1 1 1 1 1 1 1 1 1 1 1 1 1 H 1 2 3 4 5 6 7 8 9 V 44 43 42 41 40 39 38 37 36 35 34 33 32 31 30 29 28 27 26 25 24 23 22 21 20 19 Z M 0,53 v 1 1 1 1 1 1 1 1 1 1 1 1 1 1 1 1 1 1 1 1 1 1 1 1 1 1 1 1 1 1 1 1 1 1 1 1 1 1 1 1 1 1 1 1 1 1 1 1 1 1 1 1 1 1 1 h 1 1 1 1 1 1 1 1 1 v -1 -1 -1 -1 -1 -1 -1 -1 -1 -1 -1 -1 -1 -1 -1 -1 -1 -1 -1 -1 -1 -1 -1 -1 -1 -1 -1 -1 -1 -1 -1 -1 -1 -1 -1 -1 -1 -1 -1 -1 -1 -1 -1 -1 -1 -1 -1 H 8 7 6 V 60 59 58 57 H 5 4 3 V 56 55 54 53 H 2 1 Z m 9,55 v 1 1 1 1 1 1 1 1 1 1 1 1 1 1 1 1 1 1 h 1 1 1 1 1 1 1 1 1 v -1 -1 -1 -1 -1 -1 -1 -1 -1 -1 -1 -1 -1 -1 -1 -1 -1 -1 h -1 -1 -1 -1 -1 -1 -1 -1 z m 9,18 v 1 1 1 1 1 1 1 1 1 h 1 1 1 1 1 1 1 1 1 v -1 -1 -1 -1 -1 -1 -1 -1 -1 h -1 -1 -1 -1 -1 -1 -1 -1 z m 9,9 v 1 1 1 1 1 1 1 1 1 h 1 1 1 1 1 1 1 1 1 v -1 -1 -1 -1 -1 -1 -1 -1 -1 h -1 -1 -1 -1 -1 -1 -1 -1 z m 9,9 v 1 1 1 1 1 1 1 1 1 h 1 1 1 1 1 1 1 1 1 1 1 1 1 1 1 1 1 1 1 1 1 1 1 1 1 1 1 1 1 1 1 1 1 1 1 1 1 1 1 1 1 1 1 1 1 1 1 1 1 1 1 1 1 1 1 1 1 1 1 1 1 1 1 1 1 1 1 1 1 1 1 1 1 1 1 1 1 1 1 1 1 v -1 -1 -1 -1 -1 -1 -1 -1 -1 h -1 -1 -1 -1 -1 -1 -1 -1 -1 -1 -1 -1 -1 -1 -1 -1 -1 -1 -1 -1 -1 -1 -1 -1 -1 -1 -1 -1 -1 -1 -1 -1 -1 -1 -1 -1 -1 -1 -1 -1 -1 -1 -1 -1 -1 -1 -1 -1 -1 -1 -1 -1 -1 -1 -1 -1 -1 -1 -1 -1 -1 -1 -1 -1 -1 -1 -1 -1 -1 -1 -1 -1 -1 -1 -1 -1 -1 -1 -1 -1 z m 81,0 h 1 1 1 1 1 1 1 1 1 v -1 -1 -1 -1 -1 -1 -1 -1 -1 h -1 -1 -1 -1 -1 -1 -1 -1 -1 v 1 1 1 1 1 1 1 1 z"
     style="fill:#b89563;fill-opacity:1" />
  <path
     id="rect38"
     d="m 36,0 v 1 1 1 1 1 1 1 1 1 h 1 1 1 1 1 1 1 1 1 1 1 1 1 1 1 1 1 1 1 1 1 1 1 1 1 1 1 1 1 1 1 1 1 1 1 1 1 1 1 1 1 1 1 1 1 V 8 7 6 5 4 3 2 1 0 h -1 -1 -1 -1 -1 -1 -1 -1 -1 -1 -1 -1 -1 -1 -1 -1 -1 -1 -1 -1 -1 -1 -1 -1 -1 -1 -1 -1 -1 -1 -1 -1 -1 -1 -1 -1 -1 -1 -1 -1 -1 -1 -1 -1 z m 45,9 v 1 1 1 1 1 1 1 1 1 1 1 1 1 1 1 1 1 1 1 1 1 1 1 1 1 1 1 h 1 1 1 1 1 1 1 1 1 V 35 34 33 32 31 30 29 28 27 26 25 24 23 22 21 20 19 18 17 16 15 14 13 12 11 10 9 h -1 -1 -1 -1 -1 -1 -1 -1 z m 0,27 h -1 -1 -1 -1 -1 -1 -1 -1 -1 v 1 1 1 1 1 1 1 1 1 h 1 1 1 1 1 1 1 1 1 V 44 43 42 41 40 39 38 37 Z M 63,64 v 1 1 1 1 1 1 1 1 h 1 1 1 1 1 1 1 1 1 v -1 -1 -1 -1 -1 -1 -1 -1 h -1 -1 -1 -1 -1 -1 -1 -1 z m 9,8 v 1 1 1 1 1 1 1 1 1 1 1 1 1 1 1 1 1 1 h 1 1 1 1 1 1 1 1 1 v -1 -1 -1 -1 -1 -1 -1 -1 -1 -1 -1 -1 -1 -1 -1 -1 -1 -1 h -1 -1 -1 -1 -1 -1 -1 -1 z m 9,18 v 1 1 1 1 1 1 1 1 1 h 1 1 1 1 1 1 1 1 1 1 1 1 1 1 1 1 1 1 1 1 1 1 1 1 1 1 1 1 1 1 1 1 1 1 1 1 v -1 -1 -1 -1 -1 -1 -1 -1 -1 h -1 -1 -1 -1 -1 -1 -1 -1 -1 -1 -1 -1 -1 -1 -1 -1 -1 -1 -1 -1 -1 -1 -1 -1 -1 -1 -1 -1 -1 -1 -1 -1 -1 -1 -1 z m 36,9 v 1 1 1 1 1 1 1 1 1 h 1 1 1 1 1 1 1 1 1 v -1 -1 -1 -1 -1 -1 -1 -1 -1 h -1 -1 -1 -1 -1 -1 -1 -1 z m 9,9 v 1 1 1 1 1 1 1 1 1 1 1 1 1 1 1 1 1 1 1 1 1 1 1 1 1 1 1 h 1 1 1 1 1 1 1 1 1 v -1 -1 -1 -1 -1 -1 -1 -1 -1 -1 -1 -1 -1 -1 -1 -1 -1 -1 -1 -1 -1 -1 -1 -1 -1 -1 -1 h -1 -1 -1 -1 -1 -1 -1 -1 z"
     style="fill:#e2d2b3;fill-opacity:1" />
  <path
     id="rect1154"
     d="m 18,9 v 1 1 1 1 1 1 1 1 1 H 17 16 15 14 13 12 11 10 9 v 1 1 1 1 1 1 1 1 1 1 1 1 1 1 1 1 1 1 1 1 1 1 1 1 1 1 1 h 1 1 1 1 1 1 1 1 1 1 1 1 1 1 1 1 1 1 v -1 -1 -1 -1 -1 -1 -1 -1 -1 -1 -1 -1 -1 -1 -1 -1 -1 -1 -1 -1 -1 -1 -1 -1 -1 -1 -1 h 1 1 1 1 1 1 1 1 1 V 17 16 15 14 13 12 11 10 9 H 35 34 33 32 31 30 29 28 27 26 25 24 23 22 21 20 19 Z M 9,61 v 1 1 1 1 1 1 1 1 1 1 1 1 1 1 1 1 1 1 1 1 1 1 1 1 1 1 1 1 1 1 1 1 1 1 1 1 1 1 1 1 1 1 1 1 1 1 1 h 1 1 1 1 1 1 1 1 1 v 1 1 1 1 1 1 1 1 1 1 1 1 1 1 1 1 1 1 h 1 1 1 1 1 1 1 1 1 v 1 1 1 1 1 1 1 1 1 h 1 1 1 1 1 1 1 1 1 v 1 1 1 1 1 1 1 1 1 h 1 1 1 1 1 1 1 1 1 1 1 1 1 1 1 1 1 1 1 1 1 1 1 1 1 1 1 1 1 1 1 1 1 1 1 1 1 1 1 1 1 1 1 1 1 1 1 1 1 1 1 1 1 1 1 1 1 1 1 1 1 1 1 1 1 1 1 1 1 1 1 1 1 1 1 1 1 1 1 1 1 v -1 -1 -1 -1 -1 -1 -1 -1 -1 h 1 1 1 1 1 1 1 1 1 v -1 -1 -1 -1 -1 -1 -1 -1 -1 h -1 -1 -1 -1 -1 -1 -1 -1 -1 -1 -1 -1 -1 -1 -1 -1 -1 -1 -1 -1 -1 -1 -1 -1 -1 -1 -1 -1 -1 -1 -1 -1 -1 -1 -1 -1 -1 -1 -1 -1 -1 -1 -1 -1 -1 -1 -1 -1 -1 -1 -1 -1 -1 -1 v -1 -1 -1 -1 -1 -1 -1 -1 -1 h -1 -1 -1 -1 -1 -1 -1 -1 -1 v -1 -1 -1 -1 -1 -1 -1 -1 -1 h -1 -1 -1 -1 -1 -1 -1 -1 -1 v -1 -1 -1 -1 -1 -1 -1 -1 -1 h -1 -1 -1 -1 -1 -1 -1 -1 -1 -1 -1 -1 -1 -1 -1 -1 -1 -1 v -1 -1 -1 -1 -1 -1 -1 -1 -1 -1 -1 -1 -1 -1 -1 -1 -1 -1 h -1 -1 -1 -1 -1 -1 -1 -1 -1 v -1 -1 -1 -1 -1 -1 -1 -1 -1 -1 -1 -1 -1 -1 -1 -1 -1 h -1 -1 -1 -1 -1 -1 -1 -1 -1 -1 -1 -1 -1 -1 -1 -1 -1 v -1 -1 -1 z"
     style="fill:#c5a77f;fill-opacity:1" />
  <path
     id="rect1190"
     d="m 36,9 v 1 1 1 1 1 1 1 1 1 h -1 -1 -1 -1 -1 -1 -1 -1 -1 v 1 1 1 1 1 1 1 1 1 1 1 1 1 1 1 1 1 1 1 1 1 1 1 1 1 1 1 h 1 1 1 1 1 1 1 1 1 1 1 1 1 1 1 1 1 1 1 1 1 1 1 1 1 1 1 1 1 1 1 1 1 1 1 1 1 1 1 1 1 1 1 1 1 v -1 -1 -1 -1 -1 -1 -1 -1 -1 h 1 1 1 1 1 1 1 1 1 V 35 34 33 32 31 30 29 28 27 26 25 24 23 22 21 20 19 18 17 16 15 14 13 12 11 10 9 h -1 -1 -1 -1 -1 -1 -1 -1 -1 -1 -1 -1 -1 -1 -1 -1 -1 -1 -1 -1 -1 -1 -1 -1 -1 -1 -1 -1 -1 -1 -1 -1 -1 -1 -1 -1 -1 -1 -1 -1 -1 -1 -1 -1 z m 9,40 v 1 1 1 1 1 1 h -1 -1 v 1 1 1 h -1 -1 -1 v 1 1 1 h -1 -1 -1 -1 v 1 1 1 h -1 -1 -1 -1 -1 -1 -1 -1 -1 v 1 1 1 1 1 1 1 1 1 1 1 1 1 1 1 1 1 h 1 1 1 1 1 1 1 1 1 v 1 1 1 1 1 1 1 1 1 1 1 1 1 1 1 1 1 1 h 1 1 1 1 1 1 1 1 1 1 1 1 1 1 1 1 1 1 v 1 1 1 1 1 1 1 1 1 h 1 1 1 1 1 1 1 1 1 v 1 1 1 1 1 1 1 1 1 h 1 1 1 1 1 1 1 1 1 v 1 1 1 1 1 1 1 1 1 h 1 1 1 1 1 1 1 1 1 1 1 1 1 1 1 1 1 1 1 1 1 1 1 1 1 1 1 1 1 1 1 1 1 1 1 1 1 1 1 1 1 1 1 1 1 1 1 1 1 1 1 1 1 1 v -1 -1 -1 -1 -1 -1 -1 -1 -1 -1 -1 -1 -1 -1 -1 -1 -1 -1 h -1 -1 -1 -1 -1 -1 -1 -1 -1 -1 -1 -1 -1 -1 -1 -1 -1 -1 -1 -1 -1 -1 -1 -1 -1 -1 -1 v -1 -1 -1 -1 -1 -1 -1 -1 -1 h -1 -1 -1 -1 -1 -1 -1 -1 -1 -1 -1 -1 -1 -1 -1 -1 -1 -1 v -1 -1 -1 -1 -1 -1 -1 -1 -1 h -1 -1 -1 -1 -1 -1 -1 -1 -1 v -1 -1 -1 -1 -1 -1 -1 -1 -1 -1 -1 -1 -1 -1 -1 -1 -1 -1 h -1 -1 -1 -1 -1 -1 -1 -1 -1 v -1 -1 -1 -1 -1 -1 -1 -1 h -1 -1 -1 -1 -1 v -1 -1 -1 h -1 -1 -1 v -1 -1 -1 -1 h -1 -1 -1 -1 v -1 -1 -1 -1 -1 -1 -1 -1 h -1 -1 -1 -1 -1 z"
     style="fill:#dbbf98;fill-opacity:1" />
  <path
     id="rect7292"
     d="m 0,45 v 1 1 1 1 1 1 1 1 h 1 1 1 v 1 1 1 1 h 1 1 1 v 1 1 1 1 h 1 1 1 1 v 1 1 1 h 1 1 1 1 1 1 1 1 1 1 1 1 1 1 1 1 1 1 1 1 1 1 1 1 1 1 v -1 -1 -1 h 1 1 1 1 v -1 -1 -1 h 1 1 1 v -1 -1 -1 h 1 1 v -1 -1 -1 -1 -1 -1 h 1 1 1 1 1 1 v 1 1 1 1 1 1 1 1 h 1 1 1 1 v 1 1 1 1 h 1 1 1 v 1 1 1 h 1 1 1 1 1 1 1 1 1 1 1 1 1 1 1 1 1 1 1 1 1 1 1 1 1 1 v -1 -1 -1 h 1 1 1 1 v -1 -1 -1 -1 h 1 1 1 1 v -1 -1 -1 -1 h 1 1 1 1 V 52 51 50 49 48 47 46 45 H 95 94 93 92 91 90 89 88 87 86 85 84 83 82 81 80 79 78 77 76 75 74 73 72 71 70 69 68 67 66 65 64 63 62 61 60 59 58 57 56 55 54 53 52 51 50 49 48 47 46 45 44 43 42 41 40 39 38 37 36 35 34 33 32 31 30 29 28 27 26 25 24 23 22 21 20 19 18 17 16 15 14 13 12 11 10 9 8 7 6 5 4 3 2 1 Z m 6,4 h 1 1 1 1 v 1 1 1 1 h 1 1 1 1 v -1 -1 -1 -1 h 1 1 1 1 v 1 1 1 1 h 1 1 1 1 v 1 1 1 1 h 1 1 1 1 v 1 1 1 1 h -1 -1 -1 -1 v -1 -1 -1 -1 h -1 -1 -1 -1 v 1 1 1 1 H 17 16 15 14 V 60 59 58 57 H 13 12 11 10 V 56 55 54 53 H 9 8 7 6 v -1 -1 -1 z m 8,8 h 1 1 1 1 v -1 -1 -1 -1 h -1 -1 -1 -1 v 1 1 1 z m 44,-8 h 1 1 1 1 v 1 1 1 1 h 1 1 1 1 v -1 -1 -1 -1 h 1 1 1 1 v 1 1 1 1 h 1 1 1 1 v 1 1 1 1 h 1 1 1 1 v 1 1 1 1 h -1 -1 -1 -1 v -1 -1 -1 -1 h -1 -1 -1 -1 v 1 1 1 1 h -1 -1 -1 -1 v -1 -1 -1 -1 h -1 -1 -1 -1 v -1 -1 -1 -1 h -1 -1 -1 -1 v -1 -1 -1 z m 8,8 h 1 1 1 1 v -1 -1 -1 -1 h -1 -1 -1 -1 v 1 1 1 z"
     style="fill:#000000;fill-opacity:1" />
  <path
     id="rect8072"
     d="m 6,49 v 1 1 1 1 h 1 1 1 1 V 52 51 50 49 H 9 8 7 Z m 4,4 v 1 1 1 1 h 1 1 1 1 v -1 -1 -1 -1 h -1 -1 -1 z m 4,0 h 1 1 1 1 v -1 -1 -1 -1 h -1 -1 -1 -1 v 1 1 1 z m 4,0 v 1 1 1 1 h 1 1 1 1 v -1 -1 -1 -1 h -1 -1 -1 z m 4,4 v 1 1 1 1 h 1 1 1 1 v -1 -1 -1 -1 h -1 -1 -1 z m -4,0 h -1 -1 -1 -1 v 1 1 1 1 h 1 1 1 1 v -1 -1 -1 z m 40,-8 v 1 1 1 1 h 1 1 1 1 v -1 -1 -1 -1 h -1 -1 -1 z m 4,4 v 1 1 1 1 h 1 1 1 1 v -1 -1 -1 -1 h -1 -1 -1 z m 4,0 h 1 1 1 1 v -1 -1 -1 -1 h -1 -1 -1 -1 v 1 1 1 z m 4,0 v 1 1 1 1 h 1 1 1 1 v -1 -1 -1 -1 h -1 -1 -1 z m 4,4 v 1 1 1 1 h 1 1 1 1 v -1 -1 -1 -1 h -1 -1 -1 z m -4,0 h -1 -1 -1 -1 v 1 1 1 1 h 1 1 1 1 v -1 -1 -1 z"
     style="fill:#ffffff;fill-opacity:1" />
  <path
     id="rect17144"
     d="m 99,99 v 1 1 1 1 1 1 1 1 1 h 1 1 1 1 1 1 1 1 1 1 1 1 1 1 1 1 1 1 v -1 -1 -1 -1 -1 -1 -1 -1 -1 h -1 -1 -1 -1 -1 -1 -1 -1 -1 -1 -1 -1 -1 -1 -1 -1 -1 z"
     style="fill:#f7f8f3;fill-opacity:1" />
</svg>
